<svg xmlns:dc="http://purl.org/dc/elements/1.1/" xmlns:cc="http://creativecommons.org/ns#" xmlns:rdf="http://www.w3.org/1999/02/22-rdf-syntax-ns#" xmlns:svg="http://www.w3.org/2000/svg" xmlns="http://www.w3.org/2000/svg" xmlns:xlink="http://www.w3.org/1999/xlink" id="svg622594" viewBox="0 0 1024 768" height="768px" width="1024px" version="1.1">
  <metadata id="metadata622600">
    <rdf:rdf>
      <cc:work rdf:about="">
        <dc:format>image/svg+xml</dc:format>
        <dc:type rdf:resource="http://purl.org/dc/dcmitype/StillImage"></dc:type>
      </cc:work>
    </rdf:rdf>
  </metadata>
  <defs id="defs622598"></defs>
  <linearGradient spreadMethod="pad" y2="30%" x2="-10%" y1="120%" x1="30%" id="3d_gradient2-logo-459fd0e5-244e-4de5-8876-81d5b2e12a0d">
    <stop id="stop622575" stop-opacity="1" stop-color="#ffffff" offset="0%"></stop>
    <stop id="stop622577" stop-opacity="1" stop-color="#000000" offset="100%"></stop>
  </linearGradient>
  <linearGradient gradientTransform="rotate(-30)" spreadMethod="pad" y2="30%" x2="-10%" y1="120%" x1="30%" id="3d_gradient3-logo-459fd0e5-244e-4de5-8876-81d5b2e12a0d">
    <stop id="stop622580" stop-opacity="1" stop-color="#ffffff" offset="0%"></stop>
    <stop id="stop622582" stop-opacity="1" stop-color="#cccccc" offset="50%"></stop>
    <stop id="stop622584" stop-opacity="1" stop-color="#000000" offset="100%"></stop>
  </linearGradient>
  <g id="logo-group">
    <image xlink:href="" id="container" x="272" y="144" width="480" height="480" style="display: none;" transform="translate(0 0)"></image>
    <g id="logo-center" transform="translate(0 0)">
      <image xlink:href="" id="icon_container" style="display: none;" x="0" y="0"></image>
      <g id="slogan" style="font-style:normal;font-weight:400;font-size:32px;line-height:1;font-family:Arvo;font-variant-ligatures:none;text-align:center;text-anchor:middle" transform="translate(0 0)"></g>
      <g id="title" style="font-style:normal;font-weight:400;font-size:72px;line-height:1;font-family:'Brandmark Dots 1 Color';font-variant-ligatures:normal;text-align:center;text-anchor:middle" transform="translate(0 0)">
        <g id="path622603" aria-label="I" transform="translate(0 324.38800000000003) translate(286.4864289450001 15.363680000000002) scale(1.67) translate(-394.46562 51.696)"> <path class="c3" d="M95.21143,78.2458c0-2.59277,2.16016-4.75293,4.75293-4.75293c2.66406,0,4.82422,2.16016,4.82422,4.75293 c0,2.66406-2.16016,4.82422-4.82422,4.82422C97.37158,83.07002,95.21143,80.90987,95.21143,78.2458z" transform="translate(299.25419 -125.18887)" stroke-width="0" stroke-linejoin="miter" stroke-miterlimit="2" fill="#f19800" stroke="#f19800"></path> <path class="c1" d="M95.21143,120.44112V92.57491c0-2.5918,2.16016-4.75195,4.75293-4.75195 c2.66406,0,4.82422,2.16016,4.82422,4.75195v27.86621c0,2.59277-2.16016,4.75293-4.82422,4.75293 C97.37158,125.19405,95.21143,123.03389,95.21143,120.44112z" transform="translate(299.25419 -125.18887)" stroke-width="0" stroke-linejoin="miter" stroke-miterlimit="2" fill="#664f41" stroke="#664f41"></path> </g>
        <g id="path622605" aria-label="D" transform="translate(0 324.38800000000003) translate(335.4623185450001 17.528000000000006) scale(1.67) translate(-417.7925 50.4)"> <path class="c1" d="M113.60889,119.4333c-2.01563,1.65625-5.04004,1.44043-6.76855-0.57617 c-1.43945-1.72852-1.51172-4.46387,0.50391-6.48047c0.50488-0.57617,1.15234-1.2959,1.65625-1.87207 c2.16016-2.66406,3.38477-6.33691,3.38477-10.5127c0-10.44141-5.54492-15.98535-16.3457-15.98535h-8.35254v36.43457 c0,2.59277-2.16016,4.75293-4.82422,4.75293c-2.59277,0-4.75293-2.16016-4.75293-4.75293V79.5417 c0-2.5918,2.16016-4.75195,4.75293-4.75195h0.07227c0,0,0,0,0.07129,0h13.0332c15.98535,0,25.85059,9.57617,25.85059,25.20215 C121.89014,107.55244,118.93799,114.89717,113.60889,119.4333z" transform="translate(339.68262 -125.18975)" stroke-width="0" stroke-linejoin="miter" stroke-miterlimit="2" fill="#664f41" stroke="#664f41"></path> <path class="c3" d="M97.19189,125.19405c-2.5918,0-4.75293-2.16016-4.75293-4.75293c0-2.66406,2.16113-4.82422,4.75293-4.82422 c2.66406,0,4.82422,2.16016,4.82422,4.82422C102.01611,123.03389,99.85596,125.19405,97.19189,125.19405z" transform="translate(339.68262 -125.18975)" stroke-width="0" stroke-linejoin="miter" stroke-miterlimit="2" fill="#f19800" stroke="#f19800"></path> </g>
        <g id="path622607" aria-label="O" transform="translate(0 324.38800000000003) translate(428.24125604500006 15.363680000000002) scale(1.67) translate(-467.34875 51.696)"> <path class="c1" d="M99.96436,126.48994c-14.61719,0-26.49902-11.88086-26.49902-26.57031 c0-8.20898,3.74512-15.69727,10.22559-20.80957c2.01563-1.58398,5.04004-1.22461,6.69629,0.86426 c1.58398,2.01563,1.22363,5.04004-0.86426,6.69629c-4.10449,3.24023-6.48047,7.99219-6.48047,13.24902 c0,9.36035,7.56055,16.99316,16.92188,16.99316c9.36035,0,16.99316-7.63281,16.99316-16.99316 c0-5.25684-2.37598-10.00879-6.55273-13.24902c-2.08789-1.65625-2.44824-4.68066-0.79199-6.69629 c1.58398-2.08887,4.6084-2.44824,6.69629-0.86426c6.48047,5.1123,10.22559,12.60059,10.22559,20.80957 C126.53467,114.60909,114.58154,126.48994,99.96436,126.48994z" transform="translate(393.88341 -125.18887)" stroke-width="0" stroke-linejoin="miter" stroke-miterlimit="2" fill="#664f41" stroke="#664f41"></path> <path class="c3" d="M99.96436,73.49287c2.66406,0,4.82422,2.16016,4.82422,4.8252c0,2.5918-2.16016,4.75195-4.82422,4.75195 c-2.59277,0-4.75293-2.16016-4.75293-4.75195C95.21143,75.65303,97.37158,73.49287,99.96436,73.49287z" transform="translate(393.88341 -125.18887)" stroke-width="0" stroke-linejoin="miter" stroke-miterlimit="2" fill="#f19800" stroke="#f19800"></path> </g>
        <g id="path622609" aria-label="L" transform="translate(0 324.38800000000003) translate(542.4379435450002 17.528000000000006) scale(1.67) translate(-529.73 50.4)"> <path class="c1" d="M97.91162,125.19405H87.75928c-2.59277,0-4.75293-2.16016-4.75293-4.75293V79.5417 c0-2.5918,2.16016-4.75195,4.75293-4.75195c2.66406,0,4.82422,2.16016,4.82422,4.75195v36.0752h5.32813 c2.66406,0,4.75293,2.16016,4.75293,4.82422C102.66455,123.03389,100.57568,125.19405,97.91162,125.19405z" transform="translate(446.72365 -125.18975)" stroke-width="0" stroke-linejoin="miter" stroke-miterlimit="2" fill="#664f41" stroke="#664f41"></path> <path class="c3" d="M107.48877,120.44112c0-2.66406,2.08789-4.82422,4.75195-4.82422s4.75293,2.16016,4.75293,4.82422 c0,2.59277-2.08887,4.75293-4.75293,4.75293S107.48877,123.03389,107.48877,120.44112z" transform="translate(446.72365 -125.18975)" stroke-width="0" stroke-linejoin="miter" stroke-miterlimit="2" fill="#f19800" stroke="#f19800"></path> </g>
        <g id="path622611" aria-label="I" transform="translate(0 324.38800000000003) translate(620.1211331450002 15.363680000000002) scale(1.67) translate(-570.24688 51.696)"> <path class="c3" d="M95.21143,78.2458c0-2.59277,2.16016-4.75293,4.75293-4.75293c2.66406,0,4.82422,2.16016,4.82422,4.75293 c0,2.66406-2.16016,4.82422-4.82422,4.82422C97.37158,83.07002,95.21143,80.90987,95.21143,78.2458z" transform="translate(475.03545 -125.18887)" stroke-width="0" stroke-linejoin="miter" stroke-miterlimit="2" fill="#f19800" stroke="#f19800"></path> <path class="c1" d="M95.21143,120.44112V92.57491c0-2.5918,2.16016-4.75195,4.75293-4.75195 c2.66406,0,4.82422,2.16016,4.82422,4.75195v27.86621c0,2.59277-2.16016,4.75293-4.82422,4.75293 C97.37158,125.19405,95.21143,123.03389,95.21143,120.44112z" transform="translate(475.03545 -125.18887)" stroke-width="0" stroke-linejoin="miter" stroke-miterlimit="2" fill="#664f41" stroke="#664f41"></path> </g>
        <g id="path622613" aria-label="V" transform="translate(0 324.38800000000003) translate(661.9054683449999 17.528000000000006) scale(1.67) translate(-589.26744 50.4)"> <path class="c1" d="M104.3493,122.38545c-0.71973,1.72852-2.44824,2.87988-4.3916,2.87988 c-1.87207,0-3.60059-1.15137-4.32031-2.87988l-17.8584-40.89941c-1.08008-2.44824,0-5.25684,2.44824-6.26465 c2.37695-1.08008,5.18457,0,6.26465,2.44824l13.53711,31.10645l7.77734-18.00098c1.00781-2.37695,3.81641-3.45703,6.26465-2.44824 c2.37598,1.08008,3.52832,3.8877,2.44824,6.33594L104.3493,122.38545z" transform="translate(511.906793 -125.18975)" stroke-width="0" stroke-linejoin="miter" stroke-miterlimit="2" fill="#664f41" stroke="#664f41"></path> <path class="c3" d="M122.63934,79.5417c0,2.66406-2.08789,4.82422-4.75293,4.82422c-2.5918,0-4.75195-2.16016-4.75195-4.82422 c0-2.5918,2.16016-4.75195,4.75195-4.75195C120.55145,74.78975,122.63934,76.94991,122.63934,79.5417z" transform="translate(511.906793 -125.18975)" stroke-width="0" stroke-linejoin="miter" stroke-miterlimit="2" fill="#f19800" stroke="#f19800"></path> </g>
            </g>
      <image xlink:href="" id="icon" style="display: none;" x="0" y="0"></image>
    </g>
  </g>
</svg>